<mxfile host="app.diagrams.net" agent="Mozilla/5.0 (Windows NT 10.0; Win64; x64) AppleWebKit/537.36 (KHTML, like Gecko) Chrome/139.0.0.0 Safari/537.36" version="28.1.1">
  <diagram name="ページ1" id="CJo8QbVtxwB3ACyOUMFX">
    <mxGraphModel dx="1810" dy="512" grid="1" gridSize="10" guides="1" tooltips="1" connect="1" arrows="1" fold="1" page="1" pageScale="1" pageWidth="827" pageHeight="1169" math="0" shadow="0">
      <root>
        <mxCell id="0" />
        <mxCell id="1" parent="0" />
        <mxCell id="EUK5BxSvOXBuBkVTTUDy-193" value="&lt;font style=&quot;font-size: 22px;&quot;&gt;E-commerce Data Flow Diagram&lt;/font&gt;" style="fillColor=none;strokeColor=#5A6C86;dashed=1;verticalAlign=top;fontStyle=0;fontColor=#5A6C86;whiteSpace=wrap;html=1;" vertex="1" parent="1">
          <mxGeometry x="-240" y="10" width="1530" height="1160" as="geometry" />
        </mxCell>
        <mxCell id="EUK5BxSvOXBuBkVTTUDy-184" value="&lt;font style=&quot;font-size: 16px; color: light-dark(rgb(0, 0, 0), rgb(151, 208, 119));&quot;&gt;API&lt;/font&gt;" style="fillColor=none;strokeColor=light-dark(#5A6C86,#97D077);verticalAlign=top;fontStyle=0;fontColor=#5A6C86;whiteSpace=wrap;html=1;dashed=1;" vertex="1" parent="1">
          <mxGeometry x="360" y="340" width="220" height="670" as="geometry" />
        </mxCell>
        <mxCell id="EUK5BxSvOXBuBkVTTUDy-1" value="AWS Step Functions workflow" style="points=[[0,0],[0.25,0],[0.5,0],[0.75,0],[1,0],[1,0.25],[1,0.5],[1,0.75],[1,1],[0.75,1],[0.5,1],[0.25,1],[0,1],[0,0.75],[0,0.5],[0,0.25]];outlineConnect=0;gradientColor=none;html=1;whiteSpace=wrap;fontSize=12;fontStyle=0;container=1;pointerEvents=0;collapsible=0;recursiveResize=0;shape=mxgraph.aws4.group;grIcon=mxgraph.aws4.group_aws_step_functions_workflow;strokeColor=#CD2264;fillColor=none;verticalAlign=top;align=left;spacingLeft=30;fontColor=#CD2264;dashed=0;" vertex="1" parent="1">
          <mxGeometry x="-140" y="240" width="1320" height="860" as="geometry" />
        </mxCell>
        <mxCell id="EUK5BxSvOXBuBkVTTUDy-105" value="Group2" style="fillColor=none;strokeColor=light-dark(#5A6C86,#7EA6E0);verticalAlign=top;fontStyle=0;fontColor=#5A6C86;whiteSpace=wrap;html=1;strokeWidth=1;" vertex="1" parent="EUK5BxSvOXBuBkVTTUDy-1">
          <mxGeometry x="374" y="70" width="360" height="730" as="geometry" />
        </mxCell>
        <mxCell id="EUK5BxSvOXBuBkVTTUDy-18" value="Group1" style="fillColor=default;strokeColor=#006EAF;verticalAlign=top;fontStyle=0;fontColor=#ffffff;whiteSpace=wrap;html=1;strokeWidth=1;gradientColor=none;fillStyle=hatch;" vertex="1" parent="EUK5BxSvOXBuBkVTTUDy-1">
          <mxGeometry x="140" y="70" width="160" height="730" as="geometry" />
        </mxCell>
        <mxCell id="EUK5BxSvOXBuBkVTTUDy-107" value="Group3" style="fillColor=none;strokeColor=light-dark(#5A6C86,#7EA6E0);verticalAlign=top;fontStyle=0;fontColor=#5A6C86;whiteSpace=wrap;html=1;strokeWidth=1;" vertex="1" parent="EUK5BxSvOXBuBkVTTUDy-1">
          <mxGeometry x="800" y="70" width="160" height="730" as="geometry" />
        </mxCell>
        <mxCell id="EUK5BxSvOXBuBkVTTUDy-108" value="Group4" style="fillColor=none;strokeColor=light-dark(#5A6C86,#7EA6E0);verticalAlign=top;fontStyle=0;fontColor=#5A6C86;whiteSpace=wrap;html=1;strokeWidth=1;" vertex="1" parent="EUK5BxSvOXBuBkVTTUDy-1">
          <mxGeometry x="1030" y="70" width="160" height="730" as="geometry" />
        </mxCell>
        <mxCell id="EUK5BxSvOXBuBkVTTUDy-20" value="" style="sketch=0;points=[[0,0,0],[0.25,0,0],[0.5,0,0],[0.75,0,0],[1,0,0],[0,1,0],[0.25,1,0],[0.5,1,0],[0.75,1,0],[1,1,0],[0,0.25,0],[0,0.5,0],[0,0.75,0],[1,0.25,0],[1,0.5,0],[1,0.75,0]];outlineConnect=0;fontColor=#232F3E;fillColor=#ED7100;strokeColor=#ffffff;dashed=0;verticalLabelPosition=bottom;verticalAlign=top;align=center;html=1;fontSize=12;fontStyle=0;aspect=fixed;shape=mxgraph.aws4.resourceIcon;resIcon=mxgraph.aws4.lambda;" vertex="1" parent="EUK5BxSvOXBuBkVTTUDy-1">
          <mxGeometry x="184" y="140" width="78" height="78" as="geometry" />
        </mxCell>
        <mxCell id="EUK5BxSvOXBuBkVTTUDy-23" value="Lambda_201&lt;div&gt;(チャンク分割)&lt;/div&gt;" style="text;html=1;align=center;verticalAlign=middle;resizable=0;points=[];autosize=1;strokeColor=none;fillColor=none;" vertex="1" parent="EUK5BxSvOXBuBkVTTUDy-1">
          <mxGeometry x="173" y="220" width="100" height="40" as="geometry" />
        </mxCell>
        <mxCell id="EUK5BxSvOXBuBkVTTUDy-24" value="" style="sketch=0;points=[[0,0,0],[0.25,0,0],[0.5,0,0],[0.75,0,0],[1,0,0],[0,1,0],[0.25,1,0],[0.5,1,0],[0.75,1,0],[1,1,0],[0,0.25,0],[0,0.5,0],[0,0.75,0],[1,0.25,0],[1,0.5,0],[1,0.75,0]];outlineConnect=0;fontColor=#232F3E;fillColor=#ED7100;strokeColor=#ffffff;dashed=0;verticalLabelPosition=bottom;verticalAlign=top;align=center;html=1;fontSize=12;fontStyle=0;aspect=fixed;shape=mxgraph.aws4.resourceIcon;resIcon=mxgraph.aws4.lambda;" vertex="1" parent="EUK5BxSvOXBuBkVTTUDy-1">
          <mxGeometry x="184" y="300" width="78" height="78" as="geometry" />
        </mxCell>
        <mxCell id="EUK5BxSvOXBuBkVTTUDy-25" value="Lambda_202&lt;div&gt;(バッチ分割)&lt;/div&gt;" style="text;html=1;align=center;verticalAlign=middle;resizable=0;points=[];autosize=1;strokeColor=none;fillColor=none;" vertex="1" parent="EUK5BxSvOXBuBkVTTUDy-1">
          <mxGeometry x="178" y="380" width="90" height="40" as="geometry" />
        </mxCell>
        <mxCell id="EUK5BxSvOXBuBkVTTUDy-26" value="データ前処理" style="text;html=1;align=center;verticalAlign=middle;resizable=0;points=[];autosize=1;strokeColor=none;fillColor=none;fontSize=16;" vertex="1" parent="EUK5BxSvOXBuBkVTTUDy-1">
          <mxGeometry x="164" y="100" width="120" height="30" as="geometry" />
        </mxCell>
        <mxCell id="EUK5BxSvOXBuBkVTTUDy-27" value="" style="sketch=0;points=[[0,0,0],[0.25,0,0],[0.5,0,0],[0.75,0,0],[1,0,0],[0,1,0],[0.25,1,0],[0.5,1,0],[0.75,1,0],[1,1,0],[0,0.25,0],[0,0.5,0],[0,0.75,0],[1,0.25,0],[1,0.5,0],[1,0.75,0]];outlineConnect=0;fontColor=#232F3E;fillColor=#ED7100;strokeColor=#ffffff;dashed=0;verticalLabelPosition=bottom;verticalAlign=top;align=center;html=1;fontSize=12;fontStyle=0;aspect=fixed;shape=mxgraph.aws4.resourceIcon;resIcon=mxgraph.aws4.lambda;" vertex="1" parent="EUK5BxSvOXBuBkVTTUDy-1">
          <mxGeometry x="399" y="140" width="78" height="78" as="geometry" />
        </mxCell>
        <mxCell id="EUK5BxSvOXBuBkVTTUDy-28" value="Lambda_203&lt;div&gt;(SP-API&lt;br&gt;&lt;div&gt;カタログ取得)&lt;/div&gt;&lt;/div&gt;" style="text;html=1;align=center;verticalAlign=middle;resizable=0;points=[];autosize=1;strokeColor=none;fillColor=none;" vertex="1" parent="EUK5BxSvOXBuBkVTTUDy-1">
          <mxGeometry x="388" y="218" width="100" height="60" as="geometry" />
        </mxCell>
        <mxCell id="EUK5BxSvOXBuBkVTTUDy-29" value="" style="sketch=0;points=[[0,0,0],[0.25,0,0],[0.5,0,0],[0.75,0,0],[1,0,0],[0,1,0],[0.25,1,0],[0.5,1,0],[0.75,1,0],[1,1,0],[0,0.25,0],[0,0.5,0],[0,0.75,0],[1,0.25,0],[1,0.5,0],[1,0.75,0]];outlineConnect=0;fontColor=#232F3E;fillColor=#ED7100;strokeColor=#ffffff;dashed=0;verticalLabelPosition=bottom;verticalAlign=top;align=center;html=1;fontSize=12;fontStyle=0;aspect=fixed;shape=mxgraph.aws4.resourceIcon;resIcon=mxgraph.aws4.lambda;" vertex="1" parent="EUK5BxSvOXBuBkVTTUDy-1">
          <mxGeometry x="399" y="300" width="78" height="78" as="geometry" />
        </mxCell>
        <mxCell id="EUK5BxSvOXBuBkVTTUDy-30" value="Lambda_204&lt;div&gt;(SP-API&lt;br&gt;&lt;div&gt;価格情報取得)&lt;/div&gt;&lt;/div&gt;" style="text;html=1;align=center;verticalAlign=middle;resizable=0;points=[];autosize=1;strokeColor=none;fillColor=none;" vertex="1" parent="EUK5BxSvOXBuBkVTTUDy-1">
          <mxGeometry x="387" y="378" width="100" height="60" as="geometry" />
        </mxCell>
        <mxCell id="EUK5BxSvOXBuBkVTTUDy-31" value="" style="sketch=0;points=[[0,0,0],[0.25,0,0],[0.5,0,0],[0.75,0,0],[1,0,0],[0,1,0],[0.25,1,0],[0.5,1,0],[0.75,1,0],[1,1,0],[0,0.25,0],[0,0.5,0],[0,0.75,0],[1,0.25,0],[1,0.5,0],[1,0.75,0]];outlineConnect=0;fontColor=#232F3E;fillColor=#ED7100;strokeColor=#ffffff;dashed=0;verticalLabelPosition=bottom;verticalAlign=top;align=center;html=1;fontSize=12;fontStyle=0;aspect=fixed;shape=mxgraph.aws4.resourceIcon;resIcon=mxgraph.aws4.lambda;" vertex="1" parent="EUK5BxSvOXBuBkVTTUDy-1">
          <mxGeometry x="399" y="460" width="78" height="78" as="geometry" />
        </mxCell>
        <mxCell id="EUK5BxSvOXBuBkVTTUDy-32" value="Lambda_205&lt;div&gt;(Yahoo・楽天API&lt;br&gt;&lt;div&gt;価格取得)&lt;/div&gt;&lt;/div&gt;" style="text;html=1;align=center;verticalAlign=middle;resizable=0;points=[];autosize=1;strokeColor=none;fillColor=none;" vertex="1" parent="EUK5BxSvOXBuBkVTTUDy-1">
          <mxGeometry x="378" y="538" width="120" height="60" as="geometry" />
        </mxCell>
        <mxCell id="EUK5BxSvOXBuBkVTTUDy-33" value="" style="sketch=0;points=[[0,0,0],[0.25,0,0],[0.5,0,0],[0.75,0,0],[1,0,0],[0,1,0],[0.25,1,0],[0.5,1,0],[0.75,1,0],[1,1,0],[0,0.25,0],[0,0.5,0],[0,0.75,0],[1,0.25,0],[1,0.5,0],[1,0.75,0]];outlineConnect=0;fontColor=#232F3E;fillColor=#ED7100;strokeColor=#ffffff;dashed=0;verticalLabelPosition=bottom;verticalAlign=top;align=center;html=1;fontSize=12;fontStyle=0;aspect=fixed;shape=mxgraph.aws4.resourceIcon;resIcon=mxgraph.aws4.lambda;" vertex="1" parent="EUK5BxSvOXBuBkVTTUDy-1">
          <mxGeometry x="399" y="620" width="78" height="78" as="geometry" />
        </mxCell>
        <mxCell id="EUK5BxSvOXBuBkVTTUDy-34" value="Lambda_207&lt;div&gt;(Keepa API&lt;br&gt;&lt;div&gt;商品分析)&lt;/div&gt;&lt;/div&gt;" style="text;html=1;align=center;verticalAlign=middle;resizable=0;points=[];autosize=1;strokeColor=none;fillColor=none;" vertex="1" parent="EUK5BxSvOXBuBkVTTUDy-1">
          <mxGeometry x="392" y="698" width="90" height="60" as="geometry" />
        </mxCell>
        <mxCell id="EUK5BxSvOXBuBkVTTUDy-35" value="API処理" style="text;html=1;align=center;verticalAlign=middle;resizable=0;points=[];autosize=1;strokeColor=none;fillColor=none;fontSize=16;" vertex="1" parent="EUK5BxSvOXBuBkVTTUDy-1">
          <mxGeometry x="397" y="100" width="80" height="30" as="geometry" />
        </mxCell>
        <mxCell id="EUK5BxSvOXBuBkVTTUDy-54" value="" style="sketch=0;points=[[0,0,0],[0.25,0,0],[0.5,0,0],[0.75,0,0],[1,0,0],[0,1,0],[0.25,1,0],[0.5,1,0],[0.75,1,0],[1,1,0],[0,0.25,0],[0,0.5,0],[0,0.75,0],[1,0.25,0],[1,0.5,0],[1,0.75,0]];outlineConnect=0;fontColor=#232F3E;fillColor=#ED7100;strokeColor=#ffffff;dashed=0;verticalLabelPosition=bottom;verticalAlign=top;align=center;html=1;fontSize=12;fontStyle=0;aspect=fixed;shape=mxgraph.aws4.resourceIcon;resIcon=mxgraph.aws4.lambda;" vertex="1" parent="EUK5BxSvOXBuBkVTTUDy-1">
          <mxGeometry x="842" y="145" width="78" height="78" as="geometry" />
        </mxCell>
        <mxCell id="EUK5BxSvOXBuBkVTTUDy-55" value="Lambda_301&lt;div&gt;&lt;div&gt;(ファイル管理&lt;/div&gt;&lt;div&gt;コピー処理)&lt;/div&gt;&lt;/div&gt;" style="text;html=1;align=center;verticalAlign=middle;resizable=0;points=[];autosize=1;strokeColor=none;fillColor=none;" vertex="1" parent="EUK5BxSvOXBuBkVTTUDy-1">
          <mxGeometry x="831" y="223" width="100" height="60" as="geometry" />
        </mxCell>
        <mxCell id="EUK5BxSvOXBuBkVTTUDy-56" value="" style="sketch=0;points=[[0,0,0],[0.25,0,0],[0.5,0,0],[0.75,0,0],[1,0,0],[0,1,0],[0.25,1,0],[0.5,1,0],[0.75,1,0],[1,1,0],[0,0.25,0],[0,0.5,0],[0,0.75,0],[1,0.25,0],[1,0.5,0],[1,0.75,0]];outlineConnect=0;fontColor=#232F3E;fillColor=#ED7100;strokeColor=#ffffff;dashed=0;verticalLabelPosition=bottom;verticalAlign=top;align=center;html=1;fontSize=12;fontStyle=0;aspect=fixed;shape=mxgraph.aws4.resourceIcon;resIcon=mxgraph.aws4.lambda;" vertex="1" parent="EUK5BxSvOXBuBkVTTUDy-1">
          <mxGeometry x="842" y="305" width="78" height="78" as="geometry" />
        </mxCell>
        <mxCell id="EUK5BxSvOXBuBkVTTUDy-57" value="Lambda_302&lt;div&gt;&lt;div&gt;(データ統合&lt;/div&gt;&lt;div&gt;フィルタ処理)&lt;/div&gt;&lt;/div&gt;" style="text;html=1;align=center;verticalAlign=middle;resizable=0;points=[];autosize=1;strokeColor=none;fillColor=none;" vertex="1" parent="EUK5BxSvOXBuBkVTTUDy-1">
          <mxGeometry x="831" y="384" width="100" height="60" as="geometry" />
        </mxCell>
        <mxCell id="EUK5BxSvOXBuBkVTTUDy-58" value="" style="sketch=0;points=[[0,0,0],[0.25,0,0],[0.5,0,0],[0.75,0,0],[1,0,0],[0,1,0],[0.25,1,0],[0.5,1,0],[0.75,1,0],[1,1,0],[0,0.25,0],[0,0.5,0],[0,0.75,0],[1,0.25,0],[1,0.5,0],[1,0.75,0]];outlineConnect=0;fontColor=#232F3E;fillColor=#ED7100;strokeColor=#ffffff;dashed=0;verticalLabelPosition=bottom;verticalAlign=top;align=center;html=1;fontSize=12;fontStyle=0;aspect=fixed;shape=mxgraph.aws4.resourceIcon;resIcon=mxgraph.aws4.lambda;" vertex="1" parent="EUK5BxSvOXBuBkVTTUDy-1">
          <mxGeometry x="842" y="465" width="78" height="78" as="geometry" />
        </mxCell>
        <mxCell id="EUK5BxSvOXBuBkVTTUDy-59" value="Lambda_303&lt;div&gt;&lt;div&gt;(重複排除&lt;/div&gt;&lt;div&gt;フィルタ処理)&lt;/div&gt;&lt;/div&gt;" style="text;html=1;align=center;verticalAlign=middle;resizable=0;points=[];autosize=1;strokeColor=none;fillColor=none;" vertex="1" parent="EUK5BxSvOXBuBkVTTUDy-1">
          <mxGeometry x="831" y="543" width="100" height="60" as="geometry" />
        </mxCell>
        <mxCell id="EUK5BxSvOXBuBkVTTUDy-60" value="" style="sketch=0;points=[[0,0,0],[0.25,0,0],[0.5,0,0],[0.75,0,0],[1,0,0],[0,1,0],[0.25,1,0],[0.5,1,0],[0.75,1,0],[1,1,0],[0,0.25,0],[0,0.5,0],[0,0.75,0],[1,0.25,0],[1,0.5,0],[1,0.75,0]];outlineConnect=0;fontColor=#232F3E;fillColor=#ED7100;strokeColor=#ffffff;dashed=0;verticalLabelPosition=bottom;verticalAlign=top;align=center;html=1;fontSize=12;fontStyle=0;aspect=fixed;shape=mxgraph.aws4.resourceIcon;resIcon=mxgraph.aws4.lambda;" vertex="1" parent="EUK5BxSvOXBuBkVTTUDy-1">
          <mxGeometry x="842" y="625" width="78" height="78" as="geometry" />
        </mxCell>
        <mxCell id="EUK5BxSvOXBuBkVTTUDy-61" value="Lambda_304&lt;div&gt;&lt;span style=&quot;background-color: transparent; color: light-dark(rgb(0, 0, 0), rgb(255, 255, 255));&quot;&gt;(カタログ統合&lt;/span&gt;&lt;/div&gt;&lt;div&gt;&lt;span style=&quot;background-color: transparent; color: light-dark(rgb(0, 0, 0), rgb(255, 255, 255));&quot;&gt;マージ処理)&lt;/span&gt;&lt;/div&gt;" style="text;html=1;align=center;verticalAlign=middle;resizable=0;points=[];autosize=1;strokeColor=none;fillColor=none;" vertex="1" parent="EUK5BxSvOXBuBkVTTUDy-1">
          <mxGeometry x="831" y="703" width="100" height="60" as="geometry" />
        </mxCell>
        <mxCell id="EUK5BxSvOXBuBkVTTUDy-62" value="データ統合" style="text;html=1;align=center;verticalAlign=middle;resizable=0;points=[];autosize=1;strokeColor=none;fillColor=none;fontSize=16;" vertex="1" parent="EUK5BxSvOXBuBkVTTUDy-1">
          <mxGeometry x="830" y="105" width="100" height="30" as="geometry" />
        </mxCell>
        <mxCell id="EUK5BxSvOXBuBkVTTUDy-63" value="" style="sketch=0;points=[[0,0,0],[0.25,0,0],[0.5,0,0],[0.75,0,0],[1,0,0],[0,1,0],[0.25,1,0],[0.5,1,0],[0.75,1,0],[1,1,0],[0,0.25,0],[0,0.5,0],[0,0.75,0],[1,0.25,0],[1,0.5,0],[1,0.75,0]];outlineConnect=0;fontColor=#232F3E;fillColor=#ED7100;strokeColor=#ffffff;dashed=0;verticalLabelPosition=bottom;verticalAlign=top;align=center;html=1;fontSize=12;fontStyle=0;aspect=fixed;shape=mxgraph.aws4.resourceIcon;resIcon=mxgraph.aws4.lambda;" vertex="1" parent="EUK5BxSvOXBuBkVTTUDy-1">
          <mxGeometry x="1072" y="145" width="78" height="78" as="geometry" />
        </mxCell>
        <mxCell id="EUK5BxSvOXBuBkVTTUDy-64" value="Lambda_305&lt;div&gt;&lt;div&gt;(最終統合&lt;/div&gt;&lt;div&gt;&lt;span style=&quot;background-color: transparent; color: light-dark(rgb(0, 0, 0), rgb(255, 255, 255));&quot;&gt;データ統合処理)&lt;/span&gt;&lt;/div&gt;&lt;/div&gt;" style="text;html=1;align=center;verticalAlign=middle;resizable=0;points=[];autosize=1;strokeColor=none;fillColor=none;" vertex="1" parent="EUK5BxSvOXBuBkVTTUDy-1">
          <mxGeometry x="1056" y="223" width="110" height="60" as="geometry" />
        </mxCell>
        <mxCell id="EUK5BxSvOXBuBkVTTUDy-65" value="" style="sketch=0;points=[[0,0,0],[0.25,0,0],[0.5,0,0],[0.75,0,0],[1,0,0],[0,1,0],[0.25,1,0],[0.5,1,0],[0.75,1,0],[1,1,0],[0,0.25,0],[0,0.5,0],[0,0.75,0],[1,0.25,0],[1,0.5,0],[1,0.75,0]];outlineConnect=0;fontColor=#232F3E;fillColor=#ED7100;strokeColor=#ffffff;dashed=0;verticalLabelPosition=bottom;verticalAlign=top;align=center;html=1;fontSize=12;fontStyle=0;aspect=fixed;shape=mxgraph.aws4.resourceIcon;resIcon=mxgraph.aws4.lambda;" vertex="1" parent="EUK5BxSvOXBuBkVTTUDy-1">
          <mxGeometry x="1072" y="305" width="78" height="78" as="geometry" />
        </mxCell>
        <mxCell id="EUK5BxSvOXBuBkVTTUDy-66" value="Lambda_306&lt;div&gt;&lt;div&gt;(利益計算&lt;/div&gt;&lt;div&gt;&lt;span style=&quot;background-color: transparent; color: light-dark(rgb(0, 0, 0), rgb(255, 255, 255));&quot;&gt;ROI分析)&lt;/span&gt;&lt;/div&gt;&lt;/div&gt;" style="text;html=1;align=center;verticalAlign=middle;resizable=0;points=[];autosize=1;strokeColor=none;fillColor=none;" vertex="1" parent="EUK5BxSvOXBuBkVTTUDy-1">
          <mxGeometry x="1066" y="384" width="90" height="60" as="geometry" />
        </mxCell>
        <mxCell id="EUK5BxSvOXBuBkVTTUDy-71" value="最終処理" style="text;html=1;align=center;verticalAlign=middle;resizable=0;points=[];autosize=1;strokeColor=none;fillColor=none;fontSize=16;" vertex="1" parent="EUK5BxSvOXBuBkVTTUDy-1">
          <mxGeometry x="1065" y="105" width="90" height="30" as="geometry" />
        </mxCell>
        <mxCell id="EUK5BxSvOXBuBkVTTUDy-114" value="" style="shape=image;imageAspect=0;aspect=fixed;verticalLabelPosition=bottom;verticalAlign=top;image=https://i0.wp.com/goworkship.com/magazine/wp-content/uploads/2019/10/Amazon-logo-history-5-557x400.jpg?resize=557%2C400&amp;ssl=1;clipPath=inset(0.7% 15% 0.7% 15%);" vertex="1" parent="EUK5BxSvOXBuBkVTTUDy-1">
          <mxGeometry x="530" y="142" width="79.25" height="80" as="geometry" />
        </mxCell>
        <mxCell id="EUK5BxSvOXBuBkVTTUDy-117" value="" style="shape=image;imageAspect=0;aspect=fixed;verticalLabelPosition=bottom;verticalAlign=top;image=data:image/png,iVBORw0KGgoAAAANSUhEUgAAAOEAAADhCAMAAAAJbSJIAAAAn1BMVEX/////ADP/ACb/ACH/AB3/h5n/rLj/ys7/ADH/AC7/AC3/ACr/R1z/AB//ACP/rbT/ABj/+/3/ADb/9Pf/6e3/xM3/AA//3eP/laT/hJT/2N7/e47/Umv/pLH/sb3/5On/Y3n/J0v/coH/0Nn/AAD/m6n/vcf/eYv/7/L/TGX/O1n/F0H/W3L/M1P/tsL/IUT/RGL/ZHX/kJ7/OVX/cIXjvvHqAAAHV0lEQVR4nO2ce3+iOhCGa4g6kMLhouL9UqtVvPSy/f6f7dQ9tSJOIGAQd888/+3+CubFzOSdSfDhgSAIgiAIgiAIgiAIgiAIgiAIgiAIgiAIgiAIgiAIgiAIgiAIgiAIgiAIgiD+Fva9+rX0xlWLSOXJZdfSGVUtIpW1VbsWu121iDS8mXmtQDAmVatII6jB1QpF1SJSWXUKK4QvTNMS9q5qEanMa4I7TJjKOuFLE2OOzTmz/NfZ43Ban1ctIp1V2BwN3iPf5YaCUNP1o+3ToDvaN/vhpBV4VQ9fGS8I5o3uS8Q6rs0sqU4zCv4gUTjBfFx/E9L8yvZVD1AP85pskQS/datBBKWuQZONTCIbqg2vWZj+9y0WfLgIS5ToyyRyJYu2euYFeT4qHArLYbOP0hJ1SyYRXJUHW9gq8cVxAACHpYm5bNAOSpEonajWL5Vs+i4KCbSi4w3G/PhIGYf3Rhnh37ckX4NRV7i6zooIBONngkxjjwiEDW8lBGWf4esiuAq1xJ6j12bwM0cfvMSiDJbjbHq6g7LNJRJFdmCErmvnc4MWMzpvsc++/Atgrv+5XOmU2JBIFOvMS70w3HcH7zs4uEG5SfoeOzNcWA9G/dOTe8FnOQjuD3XGZFcy1+yu4g28YNUe1df+wQxiMgGEwzuvg0aYmBYgfSiKK7IqAxt/lHnLem++710M+iuBiM1w0URy81waxmBpzjhbB/0cc5M7HC4Sl+VMl7LRfkhTsfFxpaIk3i98Ycs/VxINIeBRSmb8JTMM5us1alBWkpWfq4biN4mQtlKvD4UsDDsldL1CPOjByPVZ7c7ZxXaUGk0jQyKQTa/SIh0cKtHc5Mja7bMgNHlGMG1lprhWTvE2cvHnmb0qHulDPK6Yn/H1r2QLqF1W77mOrxlcxaAeaLKYQODbLEs0lqwVZnldvS2avJUM6kPC/VlskXnBp6Qwccvr6gUzNDCgptJp2MdjkM362VdILL/YXi1ETgt3qCLKvnRhny4FPlSoZtt43AMrtUc0d1CJxmfWhYNYJjYdpUVU4rqNnCtwXkY2KrGTvnfoTWNJSmzU4naDr06zsju1uAkHkRZXrceYrbXf1LxsH58uvPxW7RqdPFbKow1rp6QI/EXxc7qo2Rd6iyaUAHeoTJrh9sZpGTSF8lZ4hLlucG+xSdnHexIyD/0Ry79io7yUTVBD4/R0qUhljK4ZwNHRT2OpSTUEDzSweIdNOT3TC+qonQL/cvyt2SlqgQ9yfMYWMzT8Zsc9hmi2uexMtWN7O6aTxy8HWGlovWVfqAmJfbMTX1J88bRquQrJJTJNwFWwerro49W3u4z/0UssXtlrviSIuW6W6Zx0ssezjXPSEUSxCt1Y53QiiHUC60Zp5pse6m1O+zX91/gyn/fpNxHXXVrdKyNCqzfj27Is4RSp4OY2y73LVKa22aWTlY+2+tzfCX0Um8Tg5s/xrxf3BqOpXUIWTdQaQ+erfKvHayUzf+cP2e8SU/0KMlmgC78VfRm10z9Nv0DP4dJ1A7/Z2Yg4koU/ii0lllnEKl+elLR1d/HV8DZoKMb+U8yKPPrWxSQ1Z9oHr8Zc0iz6EbgrtJF54brBXmZfVQ5dvIX68w0W26mdJheiW9S9MtYphy1MKGZCvGSSBrvEM0NZSDvvh3AsWI9fuG5HtateCnu8q3noaxZtTSddN/jVHoScSvZpjey2vYTkPl4BT6SVCX5EvPj2yTyRvRSOfJTMI7oossI9o4TrBqfy49W4wlw9izMSm/e3rXtRcIXGPwVvF567CLBvW/diaFa4ON+8VzvIWi6aFQ7PXLd1D29x6FW4OpukwO/hZSq9Csdna0U5x0ryolfh2aliEJXUvUn0KjTik7Ts/V5FtCo8OzILvuahFkSrwrPNe8VjLKWjVaEfm6SlHivJg06Fk1fXOd4ORIV17xl6M0242LnG72Ydy7PdWCqaPc3DQ6sx9LmwKq57Y2hX+MVq+enfz+v9ZSj8ovqS4oeSFN4R/1eFxWv8+0N3n+bukLxF+RcpbOHdxJwKJ+uG1rfRdIKfIcyrsM5tf9q+mzU+TluywZZPYbCBwxte/kvlvdEk3sKV7MzkU9j4rywE5rLpaHI/X2X4McMPRR8GO3sa1LvjZT8MW63MIZ8Ok4Iw3N1n9b/Z4IXt0XTHHDSNHod6+O0T2zWY7892j8PtZ687ltRDiZdhTV5dZdidvrxshztfMNtQfbv3+AM2gjnPEjc9TOyn3fKIXoINY0xYJsjfXk1FMvJW5/zPrOo2tScdfOSqcLxgGCS2IG9wHl/GWPZCoBqwQVNO8keqyn+lQs7wut88k5zxTezF1IzqTLt35S+CiSf0rgljC7Xqit/ms21cQwd1AX3XZfG0XGUHqt+4EjyVevPuzrF/VHbuYq9CO0G7FzHncDinkmOWN2LSfeOOVeIbovfAZBEpvK35h3M/hQVBEARBEARBEARBEARBEARBEARBEARBEARBEARBEARBEARBEARBEAShxr98zHL7fbylDQAAAABJRU5ErkJggg==;" vertex="1" parent="EUK5BxSvOXBuBkVTTUDy-1">
          <mxGeometry x="624" y="464" width="80" height="80" as="geometry" />
        </mxCell>
        <mxCell id="EUK5BxSvOXBuBkVTTUDy-118" value="" style="shape=image;imageAspect=0;aspect=fixed;verticalLabelPosition=bottom;verticalAlign=top;image=data:image/png,iVBORw0KGgoAAAANSUhEUgAAAOEAAADhCAMAAAAJbSJIAAABLFBMVEX///++AAD+//7//f////q9AQDDAAC1AADksLD7//+5AAC9AQT/+/7///z//f24XWCvAADLb27blJK7AQb83NzGAACqAACmAACxAAD3////+f+hAADztLLHSkf5//rz397///T/9/X/5uf/8uvSfnzprKvw///7//f/7u/QbW/Mb2n/9u7y19TeiYXbkonalJLfnqHsxMivExWwKCjWZGLolZuyOTrtu7fhtay4PTq2UlTjsa7ieHL/6eLCVlS5QT/VdX3xx77+7/D0sbLztanxpJ7dgX2wLS2zQUWyYlrWTkr/1dWrGhvkw8HAMTbss7uoMj//3dWdGxO+HBvNY3Dio5f/5NTxy7rcjYHPaXbSipDDS0/dhYqUAAC2eXrNcmvAjZDSrK7YXFvRPjkfsdeTAAASGklEQVR4nO1di1/bRraWRjOjzEgzCIRkyc6qNo84xHnwaKBp11CSbKGFTZfm5t69adru3v7//8M9Z2T8wMJgoJHo6uP5M5bR53PmvObMjGXVqFGjRo0aNWrUqFGjRo0aNWrUqFGjRo0aNWrUqFGjRo0a/zEgt7qGkJu/ymcCoUSkT589f/5i6Uq82Nzc/HFreaWjANr3HctSiqTC8TWtLkWB9/agETeCq5G4rpsk2zsHX77c6nep9i3R9EUqCCGqbB6XI2fIuMevAdvGLyaDeHt3ba9PlQIBOooqIcrmMQMU7u6bBG78GnDD0DPgtoxbQHJVEEcrra20bBqXw6egZl8FUg7ufRbCcMTQ5hFPWq/WV2lGHMcpm8YM+IoI66sEdO9qht5AlIyxXF9tFr/6atUCOVbX0ICWWtpaZ1F0LTW1bQ/oSfh0pTRkZfz1VkfTrGwal4Mgwwcyuo6h4ain0iBxJUpR2ozLeK1Pddk8LgfYUm19E7hJeA2g1AxVfENsHJge8oyP93JvoSrpNIy3cM3YGnxd/stFlUWFBa4saf21rS2h2m1RQaN6zvCa4/ACJAMhMtdtbPSVSLXWFXSMA4a3ANodN94/I2nq63b1FPV2MjQhDpPgSZKDMytN/4QMOTBEcwM2dWfZSkX1CN4BQ4ZjMWQRUCQVtjS3BLhKydkBmJuy+UzjdjL0WD4Wme1JjycbqxV0/VcwvIK5h2MQYhuJAQBjrWfUGiT+1YlUL2cYQf7gufBjGHlHyMV4QAjcJgMAGI/wePLLwxTTKeL4WWUoXs4Qgk9bIsPRI4Nw26QXFxgyaUdRGOysEOU4wvIrQ3CGpfFczHRtLkc5vsnzvTxAvfh+QAAHFONvadZ0BKkOwVnjECsbELAk58lxyHKgJPP0cHSVB/IFhpwFh0oIQkl1kuLLGYLihQxFxs6BcajxfmbgTTI0FFHG+69TQe8HQxtyhkYcwEdjgDiOXWYSJ2m8BJPjz8a8Eegnm5bQtGxaY7h8HHL34O3DN4CH53j79m/f7R81Ysh/UZSTDHOK8MhxX2l1P8Zh/H2bWkQM75bQbjfrfbG+vw0UvUktlYYxDtKosUlNpblUWmOY4Q/dhY7ji9SfeL7vdHqHP8SuvMBQ5tk/l3ZyTC2R3geGtlxwLCWm6tnoCbZ2E848152+zOUyfkhFhZKMyxkyueArKqwCaWT+8mLMJJ8uJDPwockTLZzqBKiXW5pzhtNWg2Taf70W8wKGxsS2Vohf9L/KwU1kSDKrKeiay5MiN8rtxhtavahtPi1Vvi8edTaCAtlzSKjkYk9XJxW+EUNHtaljLR8UlRjBb7BXfVo5hgW4fBzCVe227+iHiW1f5OiB27Abe6pyDOeUYdallu93Fl2sFF9gCOF6/FLdh7h0BsOmeCQcIfynsX2xDIB5snQ37hXDwhhz8NjX+XwAD4fXcxeiVb7fq5w/nE+GQzwIMBqdZAgjMTrqV45hAWbKcICTU2No+CjrB4aQ7LeeVo7hDWXYOU5sD4znhAyBYePvfxaG+tsAIlEuw7EsAxhH8Xp1Jr5vx9B6GbMQGHqjy0wRJ96sTg58u3ForQd2aE8wRKXl8cvq1DFuKcP1xDAcvwwzjj8HQ4If65DxYkl17DosQcYvu5+XxgzcyOMLv2llGaWZWAoi8PERG13EseQWvLwPVYwZMkydppUSrYX4lEQ2MmTjDJmdbFaO4XyWxswS+k1f0C8lDyUfG4gSdJTx+EFlCN5MhoQQYTWblui/gzDbTAFfYLh1nyLvohzf9M06IjsMI9flYzENhN0Yip8+rU6h5kZ1Gk2EsESaqWcycjEmDUcXmcLwQb9yDOcah8RU7dOMdo4Y90Jwgd7ImJr50wV677XU8q202/mxkc86jTPEOavku+o4/BtaGmH5TtZ+/A9p/L3Lx6I2lGH8JqtOU8b8Hp8Qi1IhhGo/C/Injl/MIsieTpeb1ek4nVeGuApBZ9p3Urq3LQuugtBb7j/2K1drK0CxDJWCYO2RaOr22W7iFV3FePBMO5VjeC0Zml+UyoAhEozDgnkL5tpRa09VqP1rHoaZshxQUoBqn+0k2F9TcJnHj1YrVBCehyGhFDy9AJad3vqpaxfPPUFy+FHptFkqq3HMMQ6JAuVLwdHTs8VtF/PeAoYyYqfLWmeVi2mKZegQKsjI0mC6ROnq2fOfAuwaYrLA0kCEs2jBs+5JTAN2ZfLZ+vHJ5n6cRJBAgBC90fyh8YnMGBp2mKLDLIdOAS5n6Lnvf//hh7+M4/f3QSMYm7wfEQxdDqkwrquR/6UfKV2dafxZPVEecxOAO0QA7Lyp+TTDEDuJJGot396yUlWlpv0ZHUPc9F3aI4tplj5hB2aBSkdcMuwzTdY6vg8Mq+MuZnV9Sca8QSv3oNvSdK6xAoY4pcbxa+es6zSJuhcM8/Vb2Po76twb/KWAIUtCCABY/IYqSP5VdaYtZo1DPuhVG/aXmtY8u8gLYtkblyUm+7QDYzAV1etNLEAEmIxa5FTz80jgOL8dyt3lzPdJioFP2cSGmCXDAfKmQ8PugrqOAx3FT3uW8HVWndwQcTlD182VcoIzjs4CW8ojFsgo/tBOm47KKEiwct6i0NIU6uPEU7AYjO3REOSEYetTr4sWpjrFYINbrShhCU6l8VBGoKWttV7Hr47ohrjVqiCQYcSjCLwKJPaLva5TodR+iFuu7AJPL9HIho3velQ4aXVleEOGkC0FCYvssPWs100JqVDj7BC3XCUrQxc0Vf70YycTliC0XTEzY912dR6HUWhz9pdDqn3hWIpWZ9pwiNuusMRg1N3oZY4vCG7mUjafacxmWJQKjj0EsXkYJra9vQ7i05pYJK0exRlr12CQheHEti5e6HkuWpZxvvApg+UObuWTVnErntlxKS5JY975ngrgGDAPlNPJhXvcp45DsrQ6JbYhZliaAUXJTEnNsz2X4X4R2AY8pbjBWsdpqm6FGRaWXpjZE2KCM67B45NvSJ78xw+0r7sVdPizam1gRxjWakZcuFlUOtaXMKCIi55OD8EXiuoNw1m2lCetVtz6pTXEL3HenF9QCAbuR30iKmxpigjK/bOny1/0vxjh4anHmSuLBC5td6Nj+dVlWCTD5Ps29UkGjm4A2nnZ8HhRBoy+hQfruClW5TBzdR51miJtapWDCNL7vhFFg2riRDTAIQ+2WycVmq4YYvbqPKLGZmZIO0sf79qRl3AsFMtx189tCMHZu+XM15aGFKNC4ds884dd0vQPW2BLbRfX6cvx4AYYgstY7BBst7GEqI4w55nHV35Ttz+42DCT2Kit43M0RqytFyB14ftp9WZIrzXL7fuadnuLCQcZsggDuFHDno0FYe7CUMwsbM2sTnAzD0PHz6hlrRy7EW4SAYH4SPa5l2Rc/mOljdv4lUnpAuZhmFpUNR192ILIzcO1ziPXb4JxjMzjxdU2EqwOx3nGodkkCYbieivk3gWviJEbaG3EG0ttajkVCt/mkWE+7QmO/0nLQz0dk6EXonV1cfHz6R5V96TmPeUtNElhKKaW+O9XOBTHp9k814TkITzk7j5WTjMjg/1NShfmPJ17o5vdOpXYWDqZ7BuDEybM3u9lIGmagVVtktK34rlR96Xf+dBCw1kwk+h5krWWgKKDO2I6fmUYFmBWrz5dXYsjXIcwfRnYG2/7ELJ9h5BK2Jub7amgdP8I8uEChsZLsoN+hvQUzcp3/TfcccAHr2gXaanRU9vd76SPUlRUcT8ZUqvptz80Cmf0zU5EPPhEs9Rvqqz8yagbjUMFIapqr7lh4RuD+9OF8WFbQKBeHYY3WLumzg6CghKdicJDyY7OFM7p308txUZhYTXV/8Rswu3b+ZypjZVyGSx2hEPS+8CwOF0noKjOgzjBRcDehcsNbxn/s4edNaXXpm6updppOk8CiT0KRaUpO2nt4YbvpdczbroOmAigqPu7Ccdp/ILLeZgcnWXCuQdaWixDdOhaq61T2/SVTl8OwzHe76n7y9DCnnaLqM2YRywsroJ7jedtUnoadYuVzvC4Y3U2koi70wxxISJuVFP+ZM3t1uM7jlrdlW7BTAZ2DcN38IoVsTQ3W49PtCPU1rbLC94ihutlebywcq8Zwt/SlC65XJ43LI5eBwwQZFKy9ckqOdmfvd7iKi3FE1geNf83iezExaR/fHeFfC9+r7FHu7oJsi7L9V/NcOadKWUJa+XARqfohd5UssFwXpFCspWVtq/STEtzpQwtTZUvuocNsKfYq29PLvYyUau78Jhgs1RZdf5byhBGquVQutkwuw5IOX3WCY+Cj/AskONn4zSJnCEvSoPydU9XMkydpq+eNFB6OHfBhuIbcmw8hHRYlGVqzmVYgGvIMBWOFqLZtFYPcCE+5oVTgLh8+4Q8Km1H0/NxeDnDWeNQgABx926L7u1Iyca73UcME8Z/fpySbhVtqb7K4+endRHiOJ0Xrcnt94YMsQcn+NTRZXXw4/1/00jiaQQNI8NZOwITrdNHwlcZ8cXqYguuCYKp13GTuNX45UFpU/x4+6+Xi7HiX9V6T84/taU6l7xKji9oidssaDO7OwV/ntPGlDLblzkFr5Oj1OZabIJx1BQcPUd3DJ4QeCm06VcpdSUNpOtkCkjv2hTVOcPp14FUOf/xBxK4GkX/fq55leE7VPDag0fLzaKK7qxKJzjUKB+fWx2KdfIi5npJMRxtF2HsT4bfxv/X7QhcCtyhq+mLLPuszhf3e6H45eQOVpEsy0TuPXEfEetOT/kU+GoiFfgPPxNUTiM310aekIs0fd9UXDNhyq53x9DBJazKnFX8h8M5B7Ikw8d8Q9hByXYHb8Fdqiy8Pm23BwrzmWAZFhAfORAk+QZEmSCH0g4CpXpnDNNs9dfFjSe/PVn8jNgweGLwm3kEfsEfCwu//vqvfz99Te8w3Emz3slRwFz5mcAwIx6uA8/PgkwCSKYa27sLH5ceLj8GGVJ1h3Mbfoe2z/YD5tr8D4ep0OD30A3NfD9zXTc+fbW/8d1Lc345tuUg7tR16Kb/KOsvxvIaxxvfHrbZVJhLF9LixunRzxufNn9cXlntUPSHxuQQtKZA8O7KcGmaOoL0nsWT+13Mi4JizNRjHmini6WD5P27/3v2zd+XO2hajLycNAVmNOt2nTwHvdNTrzEd1/5WEMchbh/gzdgIwtRa5PiuA/mvbFBuMqc7DU7RxfVt5lQ9XI2RD7b4/bv9tc0HJ6iO5/97XCHnDpuuDw1xzcluYnOGVXhzs5czNOLIT13D1krDig82zMAqE561ZntuwvO9UMx2PTsHiy8+vO33V3sdfZfe/Jow8+++vwz2RnrsWqfGM3OompT5MVZIM8x35jESw/O7OG546Z7ufv1kbX3v6Vm/1223URUJ+vjPvYzGzL87lu4vtlh+RNyFM+LGBHj+14FpHNhIHGDnyislDLVG6/Tgt+dvD0/A+GsMtXG5rDDunpRRnsF3Fm5A6KXAzov5fAZD29TqDXBVszmnGnWUSXBrrXjn542l9b3lVfBpxoY4jsBQ2sKzvXChFKXdEgrBBEc87iDz5jTw8I6nzog7H4PnBxqDUsqB+Qf5gX3c3jnYX1t6c7L8uoPVqvMaDFZjUqOdSkOwplSJZYL8Dd86js0omsEQzUcuM3BrjXj76Hhh7W97T/sQjKDzgTieYG0/JaiPXYDKI056ng2WV4DCtUlq+esgdxaFWmoGobGPSYBS++sSUAOFpF0C0jEJEc0QpmKYM4M8dyQ4gRItqTmR4hvfpf7rLxt5p8i0y0DP4MaNWP6++HF9C9yatgahiGP6m02K6eTJwrCwSkbeYVhALUdTSX4LkJJutnAzOewnDM+3OzbBSBC++/nbjw9OXl/+Gle77PmrIXePpto7wmbm3NyAOibb74431ja/OgSH3evecX5aBpq6ffLKZUGcyPc7x0/WPhw+XVl57WOlHwaRIGSe0n4lgeNp+evd/X9+2Ds8A4eNcygaQgLHBMXO9cv6lUUG9o5CFtq2TGUI60LD+RTH+M1KrbSbH0RjCUGYXQDFgOGg5Dnu1O4zfPRsvtFJnVc28VeMUjABV3dayiwHguAmh8QSg1BkMFOLzHJLL8py2XeFFDw0BCZjTsHwREedmhGo1Z9AVS+45QvTFvfdH9aoUaNGjRo1atSoUaNGjRo1atSoUaNGjRpVwf8Db5GXUEk0fssAAAAASUVORK5CYII=;" vertex="1" parent="EUK5BxSvOXBuBkVTTUDy-1">
          <mxGeometry x="530" y="464" width="80" height="80" as="geometry" />
        </mxCell>
        <mxCell id="EUK5BxSvOXBuBkVTTUDy-119" value="" style="shape=image;imageAspect=0;aspect=fixed;verticalLabelPosition=bottom;verticalAlign=top;image=data:image/png,iVBORw0KGgoAAAANSUhEUgAAAOEAAADhCAMAAAAJbSJIAAAA1VBMVEUlapP///8ncJp9howMJzsAAA0jaJDi6e7P1uAUZZAucpry9PWutblfZW4hJisAEykAAAAAWowAIDEAVYkLN1AAABcgZIoAS4KFjZMAAB0XGTFJXWnP2+Ly9vmNo7gYUHAAGikWTGtEfqDb3uEkJCPl5+gAFCYAX44AABJnkq5ifJIAQWUADhwAABkARYBTVlwAKlXOzs53m7WLobIAUHkbWHsmJyQIACgOQFtLX2snR1cAMmGUnaOEiIiLmaY9TVgAFDUkMT2guMm3x9USIC0XFB4QHzRpblVOAAACSElEQVR4nO3dXW8SQRSA4WHrYtetsmyRVoUiRcqq+IEWxW/b2v7/n+RquFLTzDljmLP0fRNIuDrzBLLczGScIyIiIiIiIiIiIiKiG11bXuwlC5t1pc2y2GuWlN253ZI2fNokIsJ/Cp89H/VjL9w7jTC/W8zHSeyV+6YTvii3XXgfoaEQIrQfQoT2Q4jQfggR2g8hQvshRGg/hAjthxCh/RAitB9ChPZDiNB+CBHaDyFC+yFEaD+ECO2HEOEml3qg6mVXIXxVFK+7+/KCtvhnx7vKhmJha7JY7A7kkwZvQojZsXyhG+8omnA6uabpH+X6OW9Pl/pzGiHC/NET7969X+gHHabznvoJFSYsyhPPqk6I8MHjaMLVyLPxctBM4TL5nVu/1u9/f6z/PxsqHHnPQYgQIUKECBEiRIgQIUKECBEiRIgQIUKECBEiRIgQIUKECBEiRHjThR+2Xvix+OS7RfRg1kjh5y9fj7yT77iNL2zl+dC/gDnxhJsqTJjUP6DDHUVT+UoXmjl13zoBwto4O/1epNKKdCIX7s3TSjwpTatOGSR0rt8rb0krzzTCex3xoPW4VdgpBsVVFZlTPBtr4VgzLMrdGFmiFDbnzIz2O0RoJoQI7YcQof0QIrQfQoT2Q4jQfggR2g8hQvshRGg/hAjthxCh/RAitB9ChPZDiNB+CBHaDyFC+yFEaL/t3wXt3PnFxZ6wnR8nTRImiVtdPhR1VTbo9odftXuF7IBIVVXNErp2X9zmz00QERERERERERERERHRf+wnGdzi9KTzR7kAAAAASUVORK5CYII=;" vertex="1" parent="EUK5BxSvOXBuBkVTTUDy-1">
          <mxGeometry x="530" y="623" width="80" height="80" as="geometry" />
        </mxCell>
        <mxCell id="EUK5BxSvOXBuBkVTTUDy-160" value="" style="shape=image;imageAspect=0;aspect=fixed;verticalLabelPosition=bottom;verticalAlign=top;image=https://i0.wp.com/goworkship.com/magazine/wp-content/uploads/2019/10/Amazon-logo-history-5-557x400.jpg?resize=557%2C400&amp;ssl=1;clipPath=inset(0.7% 15% 0.7% 15%);" vertex="1" parent="EUK5BxSvOXBuBkVTTUDy-1">
          <mxGeometry x="530" y="300" width="79.25" height="80" as="geometry" />
        </mxCell>
        <mxCell id="EUK5BxSvOXBuBkVTTUDy-161" value="Amazon SP-API&lt;div&gt;(カタログ情報)&lt;/div&gt;" style="text;html=1;align=center;verticalAlign=middle;resizable=0;points=[];autosize=1;strokeColor=none;fillColor=none;" vertex="1" parent="EUK5BxSvOXBuBkVTTUDy-1">
          <mxGeometry x="514.62" y="220" width="110" height="40" as="geometry" />
        </mxCell>
        <mxCell id="EUK5BxSvOXBuBkVTTUDy-162" value="Keepa API&lt;div&gt;(商品トレンド分析)&lt;/div&gt;" style="text;html=1;align=center;verticalAlign=middle;resizable=0;points=[];autosize=1;strokeColor=none;fillColor=none;" vertex="1" parent="EUK5BxSvOXBuBkVTTUDy-1">
          <mxGeometry x="504.62" y="703" width="130" height="40" as="geometry" />
        </mxCell>
        <mxCell id="EUK5BxSvOXBuBkVTTUDy-163" value="Amazon SP-API&lt;div&gt;(価格情報)&lt;/div&gt;" style="text;html=1;align=center;verticalAlign=middle;resizable=0;points=[];autosize=1;strokeColor=none;fillColor=none;" vertex="1" parent="EUK5BxSvOXBuBkVTTUDy-1">
          <mxGeometry x="515" y="380" width="110" height="40" as="geometry" />
        </mxCell>
        <mxCell id="EUK5BxSvOXBuBkVTTUDy-164" value="Yahoo API&lt;div&gt;(価格比較)&lt;/div&gt;" style="text;html=1;align=center;verticalAlign=middle;resizable=0;points=[];autosize=1;strokeColor=none;fillColor=none;" vertex="1" parent="EUK5BxSvOXBuBkVTTUDy-1">
          <mxGeometry x="624" y="544" width="80" height="40" as="geometry" />
        </mxCell>
        <mxCell id="EUK5BxSvOXBuBkVTTUDy-165" value="楽天 API&lt;div&gt;(価格比較)&lt;/div&gt;" style="text;html=1;align=center;verticalAlign=middle;resizable=0;points=[];autosize=1;strokeColor=none;fillColor=none;" vertex="1" parent="EUK5BxSvOXBuBkVTTUDy-1">
          <mxGeometry x="529.25" y="544" width="80" height="40" as="geometry" />
        </mxCell>
        <mxCell id="EUK5BxSvOXBuBkVTTUDy-172" value="" style="edgeStyle=orthogonalEdgeStyle;html=1;endArrow=none;elbow=vertical;startArrow=block;startFill=1;strokeColor=light-dark(#545B64,#97D077);rounded=0;dashed=1;" edge="1" parent="EUK5BxSvOXBuBkVTTUDy-1">
          <mxGeometry width="100" relative="1" as="geometry">
            <mxPoint x="477" y="183.38" as="sourcePoint" />
            <mxPoint x="527" y="183.38" as="targetPoint" />
          </mxGeometry>
        </mxCell>
        <mxCell id="EUK5BxSvOXBuBkVTTUDy-173" value="" style="edgeStyle=orthogonalEdgeStyle;html=1;endArrow=none;elbow=vertical;startArrow=block;startFill=1;strokeColor=light-dark(#545B64,#97D077);rounded=0;dashed=1;" edge="1" parent="EUK5BxSvOXBuBkVTTUDy-1">
          <mxGeometry width="100" relative="1" as="geometry">
            <mxPoint x="477" y="345" as="sourcePoint" />
            <mxPoint x="527" y="345" as="targetPoint" />
          </mxGeometry>
        </mxCell>
        <mxCell id="EUK5BxSvOXBuBkVTTUDy-171" value="" style="edgeStyle=orthogonalEdgeStyle;html=1;endArrow=none;elbow=vertical;startArrow=block;startFill=1;strokeColor=light-dark(#545B64,#97D077);rounded=0;dashed=1;" edge="1" parent="EUK5BxSvOXBuBkVTTUDy-1">
          <mxGeometry width="100" relative="1" as="geometry">
            <mxPoint x="477" y="503.38" as="sourcePoint" />
            <mxPoint x="527" y="503.38" as="targetPoint" />
          </mxGeometry>
        </mxCell>
        <mxCell id="EUK5BxSvOXBuBkVTTUDy-168" value="" style="edgeStyle=orthogonalEdgeStyle;html=1;endArrow=none;elbow=vertical;startArrow=block;startFill=1;strokeColor=light-dark(#545B64,#97D077);rounded=0;dashed=1;" edge="1" parent="EUK5BxSvOXBuBkVTTUDy-1">
          <mxGeometry width="100" relative="1" as="geometry">
            <mxPoint x="477" y="663.38" as="sourcePoint" />
            <mxPoint x="527" y="663.38" as="targetPoint" />
          </mxGeometry>
        </mxCell>
        <mxCell id="EUK5BxSvOXBuBkVTTUDy-175" value="" style="endArrow=classic;html=1;rounded=0;exitX=0.5;exitY=1;exitDx=0;exitDy=0;edgeStyle=orthogonalEdgeStyle;" edge="1" parent="EUK5BxSvOXBuBkVTTUDy-1" source="EUK5BxSvOXBuBkVTTUDy-18">
          <mxGeometry relative="1" as="geometry">
            <mxPoint x="40" y="900" as="sourcePoint" />
            <mxPoint x="550" y="70" as="targetPoint" />
            <Array as="points">
              <mxPoint x="220" y="820" />
              <mxPoint x="335" y="820" />
              <mxPoint x="335" y="50" />
              <mxPoint x="550" y="50" />
            </Array>
          </mxGeometry>
        </mxCell>
        <mxCell id="EUK5BxSvOXBuBkVTTUDy-176" value="分割データ" style="edgeLabel;resizable=0;html=1;;align=center;verticalAlign=middle;horizontal=0;" connectable="0" vertex="1" parent="EUK5BxSvOXBuBkVTTUDy-175">
          <mxGeometry relative="1" as="geometry">
            <mxPoint y="36" as="offset" />
          </mxGeometry>
        </mxCell>
        <mxCell id="EUK5BxSvOXBuBkVTTUDy-179" value="" style="endArrow=classic;html=1;rounded=0;exitX=0.5;exitY=1;exitDx=0;exitDy=0;entryX=0.5;entryY=0;entryDx=0;entryDy=0;edgeStyle=orthogonalEdgeStyle;" edge="1" parent="EUK5BxSvOXBuBkVTTUDy-1" source="EUK5BxSvOXBuBkVTTUDy-105" target="EUK5BxSvOXBuBkVTTUDy-107">
          <mxGeometry relative="1" as="geometry">
            <mxPoint x="620" y="520" as="sourcePoint" />
            <mxPoint x="720" y="520" as="targetPoint" />
            <Array as="points">
              <mxPoint x="550" y="820" />
              <mxPoint x="765" y="820" />
              <mxPoint x="765" y="50" />
              <mxPoint x="880" y="50" />
            </Array>
          </mxGeometry>
        </mxCell>
        <mxCell id="EUK5BxSvOXBuBkVTTUDy-180" value="API取得結果" style="edgeLabel;resizable=0;html=1;;align=center;verticalAlign=middle;horizontal=0;" connectable="0" vertex="1" parent="EUK5BxSvOXBuBkVTTUDy-179">
          <mxGeometry relative="1" as="geometry">
            <mxPoint y="-70" as="offset" />
          </mxGeometry>
        </mxCell>
        <mxCell id="EUK5BxSvOXBuBkVTTUDy-181" value="" style="endArrow=classic;html=1;rounded=0;exitX=0.5;exitY=1;exitDx=0;exitDy=0;entryX=0.5;entryY=0;entryDx=0;entryDy=0;edgeStyle=orthogonalEdgeStyle;" edge="1" parent="EUK5BxSvOXBuBkVTTUDy-1" source="EUK5BxSvOXBuBkVTTUDy-107" target="EUK5BxSvOXBuBkVTTUDy-108">
          <mxGeometry relative="1" as="geometry">
            <mxPoint x="-300" y="630" as="sourcePoint" />
            <mxPoint x="-200" y="630" as="targetPoint" />
            <Array as="points">
              <mxPoint x="880" y="820" />
              <mxPoint x="995" y="820" />
              <mxPoint x="995" y="50" />
              <mxPoint x="1110" y="50" />
            </Array>
          </mxGeometry>
        </mxCell>
        <mxCell id="EUK5BxSvOXBuBkVTTUDy-183" value="統合データ" style="edgeLabel;html=1;align=center;verticalAlign=middle;resizable=0;points=[];horizontal=0;" vertex="1" connectable="0" parent="EUK5BxSvOXBuBkVTTUDy-181">
          <mxGeometry x="0.0037" y="2" relative="1" as="geometry">
            <mxPoint y="-22" as="offset" />
          </mxGeometry>
        </mxCell>
        <mxCell id="EUK5BxSvOXBuBkVTTUDy-16" value="" style="sketch=0;points=[[0,0,0],[0.25,0,0],[0.5,0,0],[0.75,0,0],[1,0,0],[0,1,0],[0.25,1,0],[0.5,1,0],[0.75,1,0],[1,1,0],[0,0.25,0],[0,0.5,0],[0,0.75,0],[1,0.25,0],[1,0.5,0],[1,0.75,0]];outlineConnect=0;fontColor=#232F3E;fillColor=#E7157B;strokeColor=#ffffff;dashed=0;verticalLabelPosition=bottom;verticalAlign=top;align=center;html=1;fontSize=12;fontStyle=0;aspect=fixed;shape=mxgraph.aws4.resourceIcon;resIcon=mxgraph.aws4.step_functions;" vertex="1" parent="EUK5BxSvOXBuBkVTTUDy-1">
          <mxGeometry y="782" width="78" height="78" as="geometry" />
        </mxCell>
        <mxCell id="EUK5BxSvOXBuBkVTTUDy-3" value="" style="sketch=0;points=[[0,0,0],[0.25,0,0],[0.5,0,0],[0.75,0,0],[1,0,0],[0,1,0],[0.25,1,0],[0.5,1,0],[0.75,1,0],[1,1,0],[0,0.25,0],[0,0.5,0],[0,0.75,0],[1,0.25,0],[1,0.5,0],[1,0.75,0]];outlineConnect=0;fontColor=#232F3E;fillColor=#7AA116;strokeColor=#ffffff;dashed=0;verticalLabelPosition=bottom;verticalAlign=top;align=center;html=1;fontSize=12;fontStyle=0;aspect=fixed;shape=mxgraph.aws4.resourceIcon;resIcon=mxgraph.aws4.s3;" vertex="1" parent="1">
          <mxGeometry x="312" y="70" width="78" height="78" as="geometry" />
        </mxCell>
        <mxCell id="EUK5BxSvOXBuBkVTTUDy-4" value="" style="sketch=0;points=[[0,0,0],[0.25,0,0],[0.5,0,0],[0.75,0,0],[1,0,0],[0,1,0],[0.25,1,0],[0.5,1,0],[0.75,1,0],[1,1,0],[0,0.25,0],[0,0.5,0],[0,0.75,0],[1,0.25,0],[1,0.5,0],[1,0.75,0]];outlineConnect=0;fontColor=#232F3E;fillColor=#7AA116;strokeColor=#ffffff;dashed=0;verticalLabelPosition=bottom;verticalAlign=top;align=center;html=1;fontSize=12;fontStyle=0;aspect=fixed;shape=mxgraph.aws4.resourceIcon;resIcon=mxgraph.aws4.s3;" vertex="1" parent="1">
          <mxGeometry x="602" y="70" width="78" height="78" as="geometry" />
        </mxCell>
        <mxCell id="EUK5BxSvOXBuBkVTTUDy-7" value="" style="shape=image;imageAspect=0;aspect=fixed;verticalLabelPosition=bottom;verticalAlign=top;image=https://devio2023-media.developers.io/wp-content/uploads/2020/02/jupyter-logo-condensed.png;" vertex="1" parent="1">
          <mxGeometry x="50" y="70" width="170.89" height="90" as="geometry" />
        </mxCell>
        <mxCell id="EUK5BxSvOXBuBkVTTUDy-8" value="&lt;div&gt;JupyterLab&lt;/div&gt;(Local Dev Environment)" style="text;html=1;align=center;verticalAlign=middle;resizable=0;points=[];autosize=1;strokeColor=none;fillColor=none;" vertex="1" parent="1">
          <mxGeometry x="55.44" y="160" width="160" height="40" as="geometry" />
        </mxCell>
        <mxCell id="EUK5BxSvOXBuBkVTTUDy-9" value="Input S3&lt;div&gt;(JSON files)&lt;/div&gt;" style="text;html=1;align=center;verticalAlign=middle;whiteSpace=wrap;rounded=0;" vertex="1" parent="1">
          <mxGeometry x="310" y="160" width="80" height="30" as="geometry" />
        </mxCell>
        <mxCell id="EUK5BxSvOXBuBkVTTUDy-10" value="Output S3&lt;div&gt;(CSV files)&lt;/div&gt;" style="text;html=1;align=center;verticalAlign=middle;whiteSpace=wrap;rounded=0;" vertex="1" parent="1">
          <mxGeometry x="596" y="160" width="90" height="30" as="geometry" />
        </mxCell>
        <mxCell id="EUK5BxSvOXBuBkVTTUDy-12" value="" style="endArrow=none;dashed=1;html=1;rounded=0;startArrow=classic;startFill=1;exitX=0.359;exitY=0.09;exitDx=0;exitDy=0;exitPerimeter=0;" edge="1" parent="1">
          <mxGeometry width="50" height="50" relative="1" as="geometry">
            <mxPoint x="303.27" y="114.39999999999998" as="sourcePoint" />
            <mxPoint x="234" y="114.5" as="targetPoint" />
          </mxGeometry>
        </mxCell>
        <mxCell id="EUK5BxSvOXBuBkVTTUDy-186" value="" style="endArrow=classic;html=1;rounded=0;exitX=0.5;exitY=1;exitDx=0;exitDy=0;edgeStyle=orthogonalEdgeStyle;" edge="1" parent="1" source="EUK5BxSvOXBuBkVTTUDy-108">
          <mxGeometry relative="1" as="geometry">
            <mxPoint x="1300" y="600" as="sourcePoint" />
            <mxPoint x="640" y="190" as="targetPoint" />
            <Array as="points">
              <mxPoint x="970" y="1060" />
              <mxPoint x="1090" y="1060" />
              <mxPoint x="1090" y="220" />
              <mxPoint x="640" y="220" />
            </Array>
          </mxGeometry>
        </mxCell>
        <mxCell id="EUK5BxSvOXBuBkVTTUDy-187" value="最終CSV" style="edgeLabel;resizable=0;html=1;;align=center;verticalAlign=middle;horizontal=0;" connectable="0" vertex="1" parent="EUK5BxSvOXBuBkVTTUDy-186">
          <mxGeometry relative="1" as="geometry">
            <mxPoint y="174" as="offset" />
          </mxGeometry>
        </mxCell>
        <mxCell id="EUK5BxSvOXBuBkVTTUDy-189" value="" style="edgeStyle=orthogonalEdgeStyle;html=1;endArrow=block;elbow=vertical;startArrow=none;endFill=1;strokeColor=#545B64;rounded=0;exitX=0.5;exitY=1;exitDx=0;exitDy=0;entryX=0.5;entryY=0;entryDx=0;entryDy=0;" edge="1" parent="1" source="EUK5BxSvOXBuBkVTTUDy-9" target="EUK5BxSvOXBuBkVTTUDy-18">
          <mxGeometry width="100" relative="1" as="geometry">
            <mxPoint x="-320" y="570" as="sourcePoint" />
            <mxPoint x="-220" y="570" as="targetPoint" />
            <Array as="points">
              <mxPoint x="350" y="220" />
              <mxPoint x="80" y="220" />
            </Array>
          </mxGeometry>
        </mxCell>
        <mxCell id="EUK5BxSvOXBuBkVTTUDy-191" value="" style="shape=image;imageAspect=0;aspect=fixed;verticalLabelPosition=bottom;verticalAlign=top;image=data:image/png,iVBORw0KGgoAAAANSUhEUgAAAOEAAADhCAMAAAAJbSJIAAAAkFBMVEUArTz////7//8Agx4AqCnI6tEArz+l3rfU8+ETr0O66s4ArDgAqjPy/vpnyodhzYc7uF3N7tkApTcAgBzs+vM7wGgZtlEAghIAqi9nsXXp9Osuokzx+PLi9Ofp+e8Afgue2q5UxXhUq2dHqF1drm560ZeE1qBx0pQJtEpGwGxMrWWT2akrulp/z5V1zIzT7Nk0OXe9AAAD6ElEQVR4nO3cDVPaQBAGYJIQUROktpCkbYKoRWL5+v//rlFaBRzvLrnL7e70fccZR1lm8syF7N1BGARmCct4NasvBv0l+W14KC0zMPNV62yYJj36muQPJZmwHG2KnnlNovzXDyLhfNv38B2EUf69B6KBsNoVHnwvwobo/kTVC6c7HwN4EEb5Q+hfuPbjOwij/Kd34XXmaQgPwujONVEnnG79vAjfhNHdo9vXok4Y176G8J/QddPQCMOFtyF8EzpuGhrh/D71L3TbNDTCytt15ljotGnohP5O0mNhlD/6Eu6HNEKHTUMjjKmETdNwdKKyFTprGnyFrpoGY6EjImdhc6I66IushU6aBm+hi6bBXNgQbZsGd2FkvQPHXmh9ReUvtCUKEFo2DQnCKLfZ8BchtNqBkyG06YtChBZNQ4qw+2JKjLBz05Aj7LoDJ0jYcQdOkrBb0xAl7NQ0ZAm7vG0jTNihaUgTtm8a4oStifKEbRdTAoUtd+AkCts1DZHCVk1DprBN0xAqbHFFlSo0J4oVGjcNuULTpiFYaNg0JAvN3rYRLTTagZMtNLmiChcaEBkJv3WKdnbDSPi1W4axGGHHQAghhPSBEEII6QMhhBDSB0IIIaQPhBBCSB8IIYSQPhBCCCF9ehYmrz+nvz784/2X4iHlM+mEV35CJ7xYXvvIUvk1cf0KR+pnO8qIVBj2HwghhBBCCCGEEEKfwrEmJ4fdopiNcDr78PDJX9nte3Fwm31a95rZlKUwTVQ5EyprU6ZC5Vr1g1BZDCGEEEIIIYQQQgghhBB+KlSvLeoTYS1wbTF+ulFmVb3XhtVKXfw0ZijU3rAaht2K+Qj7CoQQQgghhBBCCCFmbU5n3hNlzmbe6mKWM+/prEgVKc5WT+pilqun/2EFDCGEEEIIIYQQQgghhByEyndm0jOhupincPJFmefLI+Hls7p4wlEYVpfqHH+icqypPV4t8xHqdibCjrWMhD0FQgghhBBCCCEkF/oIpXCtmV66yZpOOCiGPlIojwHfiwEhhPSBEEII6QMhhBDSB0IIIaQPhBBCSB8IIYSQPhBCCCF9IIQQQvpACCGE9IEQQgjpAyGEENIHQgghpA+EGuFegHBvJazUn0DmkKKyE6rv12WQJLMTzu9TaoIm6f3cShguuJ+mxUJzP6pGGMQ179P05SZ4O2G55T2Ixba0FAbxhvMgJhtNNzQQBgtqhSoXC+3x64XTHd9BTHZjB8JgvuP6UixuNJ3CUBjMtynHYUzSrQHQSBiUo03BzZgUm5HuMmouDMJqnQ0ZDWSSDrO1ZrbWTtgYy3g5q5W3OnrLVT1bxqX2C0L/5g89ruq2VQrj6wAAAABJRU5ErkJggg==;" vertex="1" parent="1">
          <mxGeometry x="750" y="76.25" width="77.5" height="77.5" as="geometry" />
        </mxCell>
        <mxCell id="EUK5BxSvOXBuBkVTTUDy-192" value="Spread Seet&lt;br&gt;&lt;div&gt;(Visualization)&lt;/div&gt;" style="text;html=1;align=center;verticalAlign=middle;whiteSpace=wrap;rounded=0;" vertex="1" parent="1">
          <mxGeometry x="743.75" y="160" width="90" height="30" as="geometry" />
        </mxCell>
        <mxCell id="EUK5BxSvOXBuBkVTTUDy-194" value="" style="endArrow=classic;html=1;rounded=0;" edge="1" parent="1">
          <mxGeometry width="50" height="50" relative="1" as="geometry">
            <mxPoint x="690" y="115" as="sourcePoint" />
            <mxPoint x="740" y="115" as="targetPoint" />
          </mxGeometry>
        </mxCell>
      </root>
    </mxGraphModel>
  </diagram>
</mxfile>
